<svg t="1718961201682" class="icon" viewBox="0 0 1024 1024" version="1.1"
    xmlns="http://www.w3.org/2000/svg" p-id="2763" width="200" height="200">
    <path d="M961.344 678.656s-1.472-9.152-2.368-9.024l-166.208 16a27.008 27.008 0 0 0-24.384 25.088l-4.608 65.408-128.512 9.216-8.768-59.328a27.264 27.264 0 0 0-26.816-23.104H424.32a27.264 27.264 0 0 0-26.88 23.104l-8.704 59.328-128.576-9.216-4.544-65.408a27.008 27.008 0 0 0-24.448-25.088l-166.272-16c-0.832-0.128-1.472 9.088-2.304 9.088l-0.256 35.904 140.8 22.72 4.608 66.048a27.2 27.2 0 0 0 25.088 25.152l177.088 12.608 1.984 0.064a27.2 27.2 0 0 0 26.752-23.104l8.96-61.056h128.64l9.024 61.056a27.264 27.264 0 0 0 28.8 23.04l177.024-12.608a27.2 27.2 0 0 0 25.088-25.152l4.608-66.048 140.8-22.784z" fill="#FFFFFF" p-id="2764"></path>
    <path d="M62.592 407.488v271.168c0.448 0 0.96 0 1.472 0.128l166.208 16a17.92 17.92 0 0 1 16.192 16.576l5.12 73.408 145.024 10.304 9.984-67.712a17.92 17.92 0 0 1 17.728-15.296h175.36a17.92 17.92 0 0 1 17.728 15.296l9.984 67.712 145.024-10.304 5.12-73.408a17.92 17.92 0 0 1 16.128-16.576l166.208-16a17.6 17.6 0 0 1 1.472-0.128v-21.632h0.064V407.488h0.64c22.016-28.096 42.368-57.728 61.952-89.344-25.984-44.16-57.792-83.648-91.776-120.256-31.552 15.872-62.144 33.92-91.072 52.992-14.464-14.4-30.72-26.112-46.784-38.4-15.744-12.672-33.472-21.952-50.304-32.768 5.056-37.248 7.488-73.984 8.512-112.256-43.392-21.824-89.664-36.288-136.448-46.72-18.688 31.36-35.84 65.408-50.688 98.688a346.432 346.432 0 0 0-53.12-4.288h-0.64c-17.792 0.192-35.52 1.28-53.12 4.288-14.912-33.28-32-67.264-50.688-98.688-46.784 10.432-93.056 24.896-136.448 46.72 0.96 38.272 3.456 75.008 8.448 112.256-16.832 10.88-34.56 20.096-50.24 32.704-16 12.352-32.32 24.064-46.848 38.464a896 896 0 0 0-91.072-52.992C57.792 234.496 25.984 273.984 0 318.208c19.52 31.552 39.936 61.184 61.952 89.28z" fill="#478CBF" p-id="2765"></path>
    <path d="M812.16 728.96l-5.12 73.792a17.92 17.92 0 0 1-16.576 16.64L613.376 832h-1.28a17.92 17.92 0 0 1-17.728-15.232l-10.112-68.928H439.68l-10.176 68.928a17.92 17.92 0 0 1-18.944 15.232l-177.088-12.672a17.92 17.92 0 0 1-16.64-16.64l-5.12-73.728-149.504-14.4c0.064 16 0.32 33.664 0.32 37.12 0 157.952 200.256 233.792 449.088 234.688h0.64c248.832-0.896 449.024-76.8 449.024-234.624l0.32-37.184z" fill="#478CBF" p-id="2766"></path>
    <path d="M376.512 517.568a100.16 100.16 0 1 1-200.32 0 100.16 100.16 0 0 1 200.32 0" fill="#FFFFFF" p-id="2767"></path>
    <path d="M352.384 523.52a66.496 66.496 0 1 1-132.928 0 66.496 66.496 0 0 1 132.928 0" fill="#414042" p-id="2768"></path>
    <path d="M512 626.88c-17.856 0-32.256-13.12-32.256-29.312v-92.16c0-16.192 14.4-29.376 32.256-29.376s32.256 13.184 32.256 29.312v92.224c0 16.192-14.464 29.312-32.256 29.312M647.488 517.568a100.16 100.16 0 1 0 200.32 0 100.16 100.16 0 0 0-200.32 0" fill="#FFFFFF" p-id="2769"></path>
    <path d="M671.616 523.52a66.432 66.432 0 1 0 132.928 0 66.432 66.432 0 0 0-132.928 0" fill="#414042" p-id="2770"></path>
</svg>