<svg t="1720407605402" class="icon" viewBox="0 0 1024 1024" version="1.1"
    xmlns="http://www.w3.org/2000/svg" p-id="3847" width="200" height="200">
    <path d="M1024 499.712c0-67.584-84.992-132.096-215.04-172.032 29.696-133.12 16.384-238.592-41.984-272.384-13.312-8.192-29.696-11.264-47.104-11.264v46.08c9.216 0 17.408 2.048 23.552 5.12 28.672 16.384 40.96 77.824 30.72 157.696-2.048 19.456-6.144 39.936-10.24 61.44-40.96-10.24-84.992-17.408-132.096-22.528-27.648-38.912-57.344-73.728-87.04-104.448 67.584-63.488 132.096-98.304 175.104-98.304V44.032c-57.344 0-132.096 40.96-207.872 111.616C436.224 84.992 361.472 45.056 304.128 45.056v46.08c43.008 0 107.52 34.816 175.104 97.28-29.696 30.72-58.368 65.536-86.016 104.448-47.104 5.12-92.16 12.288-133.12 22.528-5.12-20.48-8.192-40.96-11.264-60.416-10.24-79.872 2.048-141.312 30.72-157.696 6.144-4.096 14.336-5.12 24.576-5.12V45.056c-17.408 0-33.792 4.096-47.104 11.264-58.368 33.792-71.68 139.264-41.984 271.36C84.992 368.64 1.024 432.128 1.024 499.712c0 67.584 84.992 132.096 215.04 172.032-29.696 133.12-16.384 238.592 41.984 272.384 13.312 8.192 29.696 11.264 47.104 11.264 57.344 0 132.096-40.96 207.872-111.616 75.776 70.656 150.528 110.592 207.872 110.592 17.408 0 33.792-4.096 47.104-11.264 58.368-33.792 71.68-139.264 41.984-271.36C940.032 631.808 1024 567.296 1024 499.712zM752.64 360.448c-8.192 26.624-17.408 54.272-27.648 81.92-8.192-16.384-17.408-33.792-27.648-50.176-9.216-16.384-19.456-32.768-29.696-49.152 28.672 5.12 57.344 11.264 84.992 17.408z m-95.232 222.208c-16.384 27.648-32.768 55.296-50.176 79.872-30.72 3.072-62.464 4.096-94.208 4.096s-62.464-1.024-94.208-4.096c-17.408-24.576-33.792-51.2-50.176-78.848-15.36-27.648-30.72-55.296-43.008-82.944 13.312-27.648 27.648-56.32 43.008-82.944 16.384-27.648 32.768-55.296 50.176-79.872 30.72-3.072 62.464-4.096 94.208-4.096s62.464 1.024 94.208 4.096c17.408 24.576 33.792 51.2 50.176 78.848 15.36 27.648 30.72 55.296 43.008 82.944-13.312 27.648-27.648 55.296-43.008 82.944z m66.56-26.624c11.264 27.648 20.48 56.32 28.672 82.944-27.648 7.168-56.32 12.288-86.016 16.384 10.24-16.384 20.48-32.768 29.696-49.152 10.24-17.408 19.456-33.792 27.648-50.176zM513.024 778.24c-19.456-20.48-38.912-41.984-58.368-66.56 18.432 1.024 37.888 1.024 57.344 1.024 19.456 0 38.912 0 58.368-1.024-18.432 24.576-37.888 46.08-57.344 66.56zM357.376 655.36c-29.696-4.096-58.368-10.24-84.992-16.384 8.192-26.624 17.408-54.272 27.648-81.92 8.192 16.384 17.408 33.792 27.648 50.176 10.24 16.384 19.456 32.768 29.696 48.128zM512 221.184c19.456 20.48 38.912 41.984 58.368 66.56-18.432-1.024-37.888-1.024-57.344-1.024-19.456 0-38.912 0-58.368 1.024 18.432-23.552 37.888-46.08 57.344-66.56z m-154.624 122.88c-10.24 16.384-20.48 32.768-29.696 49.152a1189.1 1189.1 0 0 0-26.624 50.176c-11.264-27.648-20.48-56.32-28.672-82.944 26.624-6.144 55.296-12.288 84.992-16.384zM168.96 605.184C95.232 573.44 47.104 532.48 47.104 499.712S95.232 425.984 168.96 394.24c18.432-8.192 37.888-14.336 57.344-21.504 12.288 40.96 27.648 82.944 47.104 126.976-19.456 43.008-34.816 86.016-46.08 125.952-20.48-5.12-39.936-12.288-58.368-20.48z m111.616 297.984c-28.672-16.384-40.96-77.824-30.72-157.696 2.048-19.456 6.144-39.936 10.24-61.44 40.96 10.24 84.992 17.408 132.096 22.528 27.648 38.912 57.344 73.728 87.04 104.448-67.584 63.488-132.096 98.304-175.104 98.304-9.216-1.024-16.384-2.048-23.552-6.144z m494.592-158.72c10.24 79.872-2.048 141.312-30.72 157.696-6.144 4.096-14.336 5.12-23.552 5.12-43.008 0-107.52-34.816-175.104-97.28 29.696-30.72 58.368-65.536 86.016-104.448 47.104-5.12 92.16-12.288 133.12-22.528 5.12 21.504 8.192 41.984 10.24 61.44z m80.896-139.264c-18.432 8.192-37.888 14.336-57.344 21.504-12.288-40.96-27.648-82.944-47.104-126.976 19.456-43.008 34.816-86.016 46.08-125.952 20.48 6.144 39.936 13.312 58.368 21.504 73.728 31.744 121.856 72.704 121.856 105.472 0 31.744-48.128 73.728-121.856 104.448zM303.104 45.056z" fill="#61DAFB" p-id="3848"></path>
    <path d="M416.768 499.712a95.232 95.232 0 1 0 190.464 0 95.232 95.232 0 1 0-190.464 0z" fill="#61DAFB" p-id="3849"></path>
</svg>